<svg id="SvgjsSvg1013" width="288" height="288" xmlns="http://www.w3.org/2000/svg" version="1.1" xmlns:xlink="http://www.w3.org/1999/xlink" xmlns:svgjs="http://svgjs.com/svgjs"><defs id="SvgjsDefs1014"></defs><g id="SvgjsG1015"><svg xmlns="http://www.w3.org/2000/svg" viewBox="0 0 48 48" width="288" height="288"><g data-name="5-Artificial intelligence" fill="#166534" class="color000 svgShape"><path fill="none" stroke="#166534" stroke-linejoin="round" stroke-width="2" d="M24 3a2 2 0 0 0-2-2h-6a2 2 0 0 0-2 2v4H9a2 2 0 0 0-2 2v6H4a2 2 0 0 0-2 2v14a2 2 0 0 0 2 2h3v6a2 2 0 0 0 2 2h5v4a2 2 0 0 0 2 2h6a2 2 0 0 0 2-2M24 9V3a2 2 0 0 1 2-2h6a2 2 0 0 1 2 2v4h5a2 2 0 0 1 2 2v6h3a2 2 0 0 1 2 2v14a2 2 0 0 1-2 2h-3v6a2 2 0 0 1-2 2h-5v4a2 2 0 0 1-2 2h-6a2 2 0 0 1-2-2v-6" class="colorStroke000 svgStroke"></path><path fill="none" stroke="#166534" stroke-linejoin="round" stroke-width="2" d="M32 18a2 2 0 0 0-2-2H18a2 2 0 0 0-2 2M16 30a2 2 0 0 0 2 2h12a2 2 0 0 0 2-2M24 32v4M28 32v4M20 32v4M24 12v4M28 12v4M20 12v4M16 24h-4M16 28h-4M16 20h-4M36 24h-4M36 28h-4M36 20h-4M20 28v-6a.979.979 0 0 1 1-1h2a.979.979 0 0 1 1 1v6M28 20v8M20 25h4M14 7v5M34 36v5M41 15v5M7 28v5M7 24v2M41 22v2" class="colorStroke000 svgStroke"></path></g></svg></g></svg>