<svg xmlns="http://www.w3.org/2000/svg" enable-background="new 0 0 3000 2500" viewBox="0 0 3000 2500"><path fill="none" d="M40.7 33.9h2918.6v2432.2H40.7z"/><path fill="#383a3a" d="M2184.9 1192.3v2.7c-1.7 13.9-9.5 27.1-23.4 35l-121.1 69.7-493 283.5c-17.4 10.1-37 14.3-56.3 13.2-14.9-1-29.8-5.4-43.3-13L950.3 1299l-100.8-57.7c-19.2-11-29.2-29.8-30.2-49-1.4-21.7 8.7-43.9 30.2-56.1L1421 807.4c44.7-25.7 99.6-25.9 144.5-.2l595.8 340.5c16.8 9.7 24.6 27.3 23.6 44.6z" opacity=".4"/><path fill="none" stroke="#332456" stroke-linecap="round" stroke-linejoin="round" stroke-miterlimit="10" stroke-width="20.015" d="m1850.8 1235.9 477 278.4c26.5 15.2 26.7 53.5.3 68.9l-339 199c-37.5 22-37.5 76.1-.1 98.2l130.4 76.7"/><path fill="none" stroke="#332456" stroke-linecap="round" stroke-linejoin="round" stroke-miterlimit="10" stroke-width="19.349" d="m2041 792.1 72.3-45.5c12.9-8.2 29.4-8.2 42.4 0L2244 802c14.2 8.9 32 9.3 46.6 1.2l165.4-92.3M1951.5 742.1l156.9-91c12.4-7.2 27.6-7.2 40 0L2229 698c14.5 8.4 32.5 8.3 46.9-.5l95.2-58M1772.9 650.5l152.4-86.8c13.9-7.9 14.5-27.8 1.1-36.6l-52.7-34.5c-16.1-10.5-15.5-34.3 1-44.1l94-55.4M1687.2 585.6 1782 532c14.4-8.1 14.5-28.8.3-37.1l-59.8-35.1c-17.1-10-17.1-34.8 0-44.8l157-92.1"/><ellipse cx="2489.7" cy="676.9" fill="none" stroke="#332456" stroke-linecap="round" stroke-linejoin="round" stroke-miterlimit="10" stroke-width="19.349" rx="47.3" ry="37.5"/><ellipse cx="2395.1" cy="610.7" fill="none" stroke="#332456" stroke-linecap="round" stroke-linejoin="round" stroke-miterlimit="10" stroke-width="19.349" rx="47.3" ry="37.5"/><ellipse cx="2012.8" cy="365.1" fill="none" stroke="#332456" stroke-linecap="round" stroke-linejoin="round" stroke-miterlimit="10" stroke-width="19.349" rx="47.3" ry="37.5"/><ellipse cx="1918.2" cy="298.8" fill="none" stroke="#332456" stroke-linecap="round" stroke-linejoin="round" stroke-miterlimit="10" stroke-width="19.349" rx="47.3" ry="37.5"/><path fill="none" stroke="#332456" stroke-linecap="round" stroke-linejoin="round" stroke-miterlimit="10" stroke-width="19.349" d="M967.1 792.1 898.7 749c-15.3-9.6-34.8-9.7-50.1 0l-84.5 53c-14.1 8.9-32 9.3-46.6 1.2l-165.4-92.3M1056.6 742.1l-153.2-88.9c-14.6-8.5-32.7-8.5-47.3 0L779 698c-14.5 8.4-32.5 8.2-46.8-.5L637 639.4M1235.2 650.5l-154.8-88.1c-12.9-7.3-13.4-25.6-1-33.7l56.1-36.7c15.6-10.2 15-33.2-1-42.6l-95.2-56.1M1320.8 585.6l-97.3-55c-13.3-7.5-13.4-26.6-.3-34.3l63.5-37.3c16.5-9.7 16.5-33.6 0-43.3l-158.3-92.9"/><ellipse cx="518.4" cy="676.9" fill="none" stroke="#332456" stroke-linecap="round" stroke-linejoin="round" stroke-miterlimit="10" stroke-width="19.349" rx="47.3" ry="37.5"/><ellipse cx="613" cy="610.7" fill="none" stroke="#332456" stroke-linecap="round" stroke-linejoin="round" stroke-miterlimit="10" stroke-width="19.349" rx="47.3" ry="37.5"/><ellipse cx="995.3" cy="365.1" fill="none" stroke="#332456" stroke-linecap="round" stroke-linejoin="round" stroke-miterlimit="10" stroke-width="19.349" rx="47.3" ry="37.5"/><ellipse cx="1089.9" cy="298.8" fill="none" stroke="#332456" stroke-linecap="round" stroke-linejoin="round" stroke-miterlimit="10" stroke-width="19.349" rx="47.3" ry="37.5"/><path fill="#9b9b9b" stroke="#332456" stroke-linecap="round" stroke-linejoin="round" stroke-miterlimit="10" stroke-width="19.349" d="m2040.4 955.8-493 283.5c-17.4 10.1-37 14.3-56.3 13.2-14.9-1-29.8-5.4-43.3-13L950.2 955l185.6-106.6L1421 684.3c44.7-25.7 99.6-25.7 144.5-.2l287.1 164.3 187.8 107.4z"/><path fill="#33d3b4" stroke="#332456" stroke-linecap="round" stroke-linejoin="round" stroke-miterlimit="10" stroke-width="19.349" d="M2184.9 848.4v2.7c-1.7 13.9-9.5 27.1-23.4 35l-121.1 69.7-493 283.5c-17.4 10.1-37 14.3-56.3 13.1-14.9-1-29.8-5.4-43.3-13l-111.3-63.6L950.2 955l-100.8-57.7c-19.1-11-29.2-29.8-30.2-49-1.4-21.7 8.7-43.9 30.2-56.1L1421 463.6c44.7-25.7 99.7-25.9 144.5-.2L1756 572.3l405.2 231.6c16.9 9.7 24.7 27.3 23.7 44.5z"/><path fill="#fff" d="M2156.7 877.8c10.4-5.9 16.9-15.6 18.6-27.3v-2.6c.8-15-6.2-28.3-18.8-35.6L1759 585.1l-408.5 587.6 102 58.3c12.2 6.8 25.8 10.9 39.2 11.7 17.9 1.1 35.5-3 50.8-11.9l493-283.5 121.2-69.5z" opacity=".7"/><path fill="#29a892" stroke="#332456" stroke-linecap="round" stroke-linejoin="round" stroke-miterlimit="10" stroke-width="19.349" d="M1502.1 522.2v89c-2.9-.4-5.6-.6-8.5-.6-12 0-23.6 3.3-34.1 9.1L991.3 889.3l-77.8-44.5 546-314c10.4-6 22.1-9.1 34.1-9.1 2.9-.1 5.6.1 8.5.5z"/><path fill="#d6d4d4" stroke="#332456" stroke-linecap="round" stroke-linejoin="round" stroke-miterlimit="10" stroke-width="19.349" d="m1999.7 889.8-490.9 282.3c-3.7 2.1-7.4 3.1-11.6 3.1h-1.5c-3.1-.2-6.8-1.4-10.3-3.3L991.3 889.3l468.3-269.5c10.4-5.8 22.1-9.1 34.1-9.1 11.6 0 23.2 3.1 33.5 9.1l472.5 270z"/><path fill="#29a892" stroke="#332456" stroke-linecap="round" stroke-linejoin="round" stroke-miterlimit="10" stroke-width="19.349" d="M2184.9 851.1v221c-1.7 13.7-9.5 27.1-23.4 35l-614.1 353.1c-17.4 9.9-37 14.3-56.3 13.2v-221c19.3 1.2 38.9-3.1 56.3-13.2l493-283.5 121.1-69.7c13.9-7.8 21.7-20.9 23.4-34.9z"/><path fill="#117f6a" d="m2175.1 1072.4-579.4 333.1h-.1c-18.9 10.7-40.2 15.7-61.7 14.4-5.1-.3-9.1-4.5-9.1-9.7v-151.5c-7.9 2-16 3.2-24.2 3.4v201.6c14.6-.6 28.9-4.7 41.9-12l614.1-353.1c10-5.5 16.6-15 18.5-26.2z"/><path fill="#117f6a" stroke="#332456" stroke-linecap="round" stroke-linejoin="round" stroke-miterlimit="10" stroke-width="19.349" d="M1491.1 1252.4v221c-14.9-1-29.8-5.4-43.3-13.2l-598.3-341.9c-20.3-11.6-30.4-32.1-30.4-52.6V848.4h.2c1 19.2 11 37.9 30.2 49L950.2 955l497.5 284.4c13.6 7.6 28.5 12.1 43.4 13z"/><path fill="#29a892" d="M844.6 905.8c-6-3.4-11.3-7.6-15.9-12.4v172.4c0 18.6 9.5 35.1 25.5 44.2l598.3 341.9c9 5.2 18.8 8.8 28.9 10.6v-26l-584-333.8c-22.1-12.6-35.3-35.4-35.3-61V915.8l-17.5-10z"/><path fill="none" stroke="#332456" stroke-linecap="round" stroke-linejoin="round" stroke-miterlimit="10" stroke-width="19.349" d="m1721.6 1373.6 148.1 85.1-139.5 82 183.3 110M2087.1 1149.9l125.4 71.6c13.7 7.8 30.5 8.1 44.5.7l61.5-32.5c17.1-9.1 37.8-8.5 54.4 1.6l187.2 113.2"/><path fill="none" stroke="#332456" stroke-linecap="round" stroke-linejoin="round" stroke-miterlimit="10" stroke-width="19.349" d="m1797.6 1317.8 243.5 141.7-149.3 79.1 103.1 57.9M1982.7 1213.9l191.8 113.3c13.7 8.1 30.7 8.6 44.8 1.2l74.2-38.8c14.9-7.8 32.7-7.1 46.9 1.8l120.9 75.4"/><ellipse cx="2592.9" cy="1327.7" fill="none" stroke="#332456" stroke-linecap="round" stroke-linejoin="round" stroke-miterlimit="10" stroke-width="19.349" rx="47.3" ry="37.5"/><ellipse cx="2488.5" cy="1396.5" fill="none" stroke="#332456" stroke-linecap="round" stroke-linejoin="round" stroke-miterlimit="10" stroke-width="19.349" rx="47.3" ry="37.5"/><ellipse cx="2034.8" cy="1616.6" fill="none" stroke="#332456" stroke-linecap="round" stroke-linejoin="round" stroke-miterlimit="10" stroke-width="19.349" rx="47.3" ry="37.5"/><ellipse cx="1949" cy="1675.2" fill="none" stroke="#332456" stroke-linecap="round" stroke-linejoin="round" stroke-miterlimit="10" stroke-width="19.349" rx="47.3" ry="37.5"/><path fill="none" stroke="#332456" stroke-linecap="round" stroke-linejoin="round" stroke-miterlimit="10" stroke-width="19.349" d="m1278.4 1379-121.2 69.7c-12 6.9-12 24.1-.1 31.1l78.2 45.9c15.6 9.2 15.7 31.7.2 41l-148.9 89.3M912.9 1155.3 788 1226.6c-14 8-31.2 8.3-45.5.8l-67.5-35.7c-13.1-6.9-28.8-6.5-41.5 1.2L440 1310M1181.9 1310l-206.5 120.2c-16.2 9.4-15.7 32.9.8 41.7l82.3 43.5c12.6 6.7 12.8 24.6.4 31.6l-74.4 41.8M1017.3 1219.3l-191.2 113c-14.1 8.3-31.4 8.8-45.9 1.2l-76.3-39.8c-13.2-6.9-29.2-6.3-41.8 1.6l-123.5 77"/><ellipse cx="407.1" cy="1333" fill="none" stroke="#332456" stroke-linecap="round" stroke-linejoin="round" stroke-miterlimit="10" stroke-width="19.349" rx="47.3" ry="37.5"/><ellipse cx="511.5" cy="1401.9" fill="none" stroke="#332456" stroke-linecap="round" stroke-linejoin="round" stroke-miterlimit="10" stroke-width="19.349" rx="47.3" ry="37.5"/><ellipse cx="944.7" cy="1608.8" fill="none" stroke="#332456" stroke-linecap="round" stroke-linejoin="round" stroke-miterlimit="10" stroke-width="19.349" rx="47.3" ry="37.5"/><ellipse cx="1051" cy="1680.6" fill="none" stroke="#332456" stroke-linecap="round" stroke-linejoin="round" stroke-miterlimit="10" stroke-width="19.349" rx="47.3" ry="37.5"/><path fill="#117f6a" stroke="#332456" stroke-linecap="round" stroke-linejoin="round" stroke-miterlimit="10" stroke-width="19.349" d="m2077.5 845.1-77.8 44.7L1527 619.7a66.3 66.3 0 0 0-25-8.5v-89c8.7 1.2 17.2 3.9 25 8.3l550.5 314.6z"/><path fill="#9b9b9b" d="m1464.2 628.2-453.5 261.1L1061 918l393.6-226.6.1-.1c12.1-6.7 25.6-10.3 38.8-10.3 13.4 0 26.7 3.6 38.4 10.4l397.9 227.4 50.4-29L1522.1 628c-17.4-10.1-39.3-10.2-57.9.2z"/><path fill="#fff" d="M1552.2 1208.2c-18.6 10.7-40 15.7-61.7 14.4-16.3-1.1-32.7-6-47.5-14.2L844.6 866.3c-5.6-3.2-10.6-7-14.9-11.5 2.7 14.4 11.4 26.6 24.5 34.2l598.2 342.1c12.2 6.8 25.7 10.8 39.2 11.7 17.9 1.1 35.5-3 50.8-11.9l614.2-353.1c10.5-6 17.1-15.9 18.6-27.8l-.1-1.2c-2.7 2.4-5.7 4.5-9 6.3l-613.9 353.1z"/><path fill="#33d3b4" d="M1481.4 1462.4v-201.3c-13.3-2-26.4-6.5-38.4-13.2 0 0-.1 0-.1-.1l-598.3-342c-6-3.4-11.3-7.6-15.9-12.4v28.9l587.1 335.7c12.1 6.8 25.7 10.8 39.2 11.7 5.1.3 9 4.6 9 9.7v178c5.8 2.2 11.6 3.9 17.4 5zM2175.3 1070.9l-.1-182.6c-2.7 2.3-5.7 4.4-9 6.3l-614.1 353.1c-15.7 9-33.3 14-51.4 14.6v38.2c3.3-1.4 6.4-2.9 9.4-4.6l614.1-353.1c10.5-6 17.1-15.9 18.6-27.8.6-5.1 5.2-8.8 10.2-8.5 5.1.3 9.1 4.5 9.1 9.7V1095c7.3-6 12-14.5 13.2-24.1z"/><path fill="#117f6a" d="m854.3 815.2 571.6-328.8c41.6-24 93.3-24 134.9-.2l595.8 340.5c7.2 4.1 12.3 10.4 15.4 17.8 1.1.8 2.4 1.5 3.4 2.4.4-15-6.6-27.7-18.8-34.7l-595.8-340.5c-41.6-23.9-93.3-23.8-134.9.2L854.3 800.7c-15 8.5-24.3 23.6-25.4 40.5 1.8-1.9 3.8-3.7 5.8-5.4 4.4-8.3 10.9-15.6 19.6-20.6z"/><path fill="#383a3a" d="M2360.3 2069.2c97.5 56.3 98 147.5 1.1 203.7-96.8 56.3-254.3 56.3-351.7 0-97.4-56.2-98-147.5-1.1-203.7 96.8-56.3 254.3-56.2 351.7 0z" opacity=".4"/><path fill="#1f9354" stroke="#332456" stroke-linecap="round" stroke-linejoin="round" stroke-miterlimit="10" stroke-width="19.349" d="m2433.7 1988.8-.4 98.9v2.1c0 1.7-.4 3.5-.6 5.2-.2 2.5-.4 5.2-.8 7.7-.2.4-.2 1-.2 1.4-.4 1.7-1 3.3-1.5 5-.6 2.5-1.2 5-2.1 7.4-.2.6-.2 1.2-.4 1.5-.6 1.5-1.4 3.1-2.1 4.6-1.2 2.5-2.3 5.2-3.7 7.7-.2.6-.4 1.2-.8 1.7-.8 1.4-1.7 2.5-2.5 3.7-1.7 2.9-3.7 5.8-5.8 8.7-.6.8-1.2 1.7-1.7 2.5-.6 1-1.5 1.7-2.3 2.5-3.1 3.9-6.8 7.5-10.4 11.4-1 .8-1.7 1.7-2.7 2.7-.4.4-1 .8-1.5 1.4-2.3 2.1-5 4.1-7.5 6.2-.4.2-.6.6-1 .8-1.9 1.7-3.9 3.1-6 4.8-2.9 1.9-6 3.9-8.9 6-2.3 1.4-4.3 2.7-6.4 4.3-1.2.6-2.1 1.2-3.1 1.7-7.5 4.3-15.5 8.1-23.4 11.8-2.5 1.2-4.8 2.1-7.2 3.1-6.4 2.7-13 5-19.5 7.4-1.5.6-2.9 1.2-4.4 1.7-1 .2-1.9.4-2.7.8-4.3 1.4-8.5 2.5-12.8 3.7-3.3.8-6.6 1.7-9.9 2.5-4.4 1.2-9.1 2.1-13.7 2.9-2.7.6-5.2 1.4-7.9 1.7-.6.2-1 .2-1.4.2-9.5 1.7-18.8 3.1-28.3 4.1-.8 0-1.5.2-2.1.2-2.3.2-4.6.4-6.8.6-5.6.4-11.2.8-16.8 1-1.4.2-2.7.2-4.1.4H2175c-2.1 0-4.3-.2-6.4-.2-4.3-.2-8.3-.4-12.6-.8-1.9-.2-3.7-.2-5.6-.4-1.9 0-3.9-.4-6-.6-4.1-.4-8.1-.8-12.4-1.4-1.9-.2-3.9-.4-5.8-.6-1.7-.4-3.5-.8-5.2-1-4.5-.8-8.9-1.5-13.2-2.3-2.1-.4-4.3-.6-6.2-1.2-1.4-.2-2.7-.6-4.3-1-5-1.2-10.3-2.3-15.3-3.7-2.1-.6-4.4-1-6.4-1.5-.8-.4-1.5-.6-2.1-.8-9.3-2.7-18.2-5.6-26.7-9.1-.6-.2-1-.2-1.4-.4-3.9-1.5-7.5-3.3-11.4-5-2.1-.8-4.3-1.7-6.4-2.7-6.2-2.9-12.4-6.2-18.2-9.5-49-28.3-73.5-65.4-73.3-102.6l.2-98.9c0 37.2 24.4 74.3 73.5 102.6 5.8 3.5 11.8 6.6 18.2 9.5 2.1 1 4.3 1.9 6.4 2.9 4.1 1.7 8.3 3.7 12.6 5.2 8.7 3.5 17.6 6.4 26.7 9.1 2.9.8 5.6 1.5 8.5 2.3 5 1.4 10.3 2.5 15.5 3.7 3.5.8 6.8 1.5 10.3 2.1 4.5.8 8.7 1.5 13.2 2.3 3.7.6 7.5 1.2 11.2 1.5 4.1.6 8.1 1 12.4 1.4 3.9.4 7.7.8 11.6 1 4.1.4 8.3.6 12.4.8 3.9 0 7.7.2 11.4.2 4.6.2 9.1 0 13.7 0 3.5 0 7.2-.2 10.6-.4 5.6-.2 11.2-.6 16.8-1 2.9-.4 6-.6 8.9-.8 9.5-1 19-2.3 28.3-4.1 3.1-.4 6.2-1.2 9.3-1.7 4.6-1 9.3-1.9 13.9-3.1 3.3-.8 6.4-1.7 9.7-2.5 4.3-1.2 8.7-2.3 12.8-3.7 2.5-.8 4.8-1.7 7.2-2.5 6.8-2.1 13.2-4.6 19.5-7.4 2.5-1 4.8-1.9 7.2-3.1 8.1-3.7 16.1-7.5 23.4-11.8 3.3-1.9 6.4-4.1 9.5-6 3.1-1.9 6.2-4.1 8.9-6 2.1-1.4 3.9-3.1 5.8-4.5.4-.4.8-.8 1.2-1 2.7-2.1 5.2-4.3 7.7-6.4l4.1-4.1c3.9-3.7 7.4-7.5 10.6-11.4 1.4-1.5 2.7-3.3 3.9-5 2.1-2.7 4.1-5.6 6-8.7 1-1.7 2.3-3.5 3.3-5.4 1.4-2.5 2.5-5.2 3.7-7.7.8-2.1 1.7-4.1 2.5-6 .8-2.5 1.4-5 2.1-7.5.6-2.1 1.2-4.3 1.5-6.4.6-2.5.6-5.2 1-7.7.1-2.2.4-4.5.4-7z"/><path fill="#3dc97f" stroke="#332456" stroke-linecap="round" stroke-linejoin="round" stroke-miterlimit="10" stroke-width="19.349" d="M2360.3 1886.2c97.5 56.3 98 147.5 1.1 203.7-96.8 56.3-254.3 56.3-351.7 0-97.4-56.2-98-147.5-1.1-203.7 96.8-56.2 254.3-56.2 351.7 0z"/><path fill="#29174c" d="M2227 1988.7c5 2.9 5.1 7.5.2 10.4-4.9 2.9-13.1 2.9-18 0l-133.3-77c-5-2.9-4.9-7.5 0-10.4 4.9-2.9 12.9-2.9 17.8 0l133.3 77z"/><path fill="#29174c" d="M2282 1932.5c47.1 27.2 47.2 71.4.6 98.6-46.8 27.2-123.1 27.2-170.2 0-36.6-21.2-46.1-53.4-23.3-80.2 3.1-3.5 10.6-5 17-3.2 1.3.4 2.4.8 3.4 1.4 3.7 2.1 4.9 5.5 2.3 8.4-17.9 21.2-10.6 46.6 18.4 63.4 37.2 21.5 97.5 21.4 134.4-.1 36.9-21.5 36.7-56.3-.4-77.8-27.2-15.7-67.6-20.4-103-12.1-4.8 1.1-10.2.4-13.7-1.7-1.2-.7-2.1-1.5-2.8-2.5-2.6-3.7.5-8 6.9-9.5 44.7-10.6 96-4.6 130.4 15.3z"/><path fill="#fff" d="M1946.4 1995.1c3.3 32.2 27.5 62.9 68.2 86.4 94.6 54.6 248 54.6 342 0 42.3-24.6 66.2-56.7 67.3-90.4.2-7.3-.6-14.6-2.5-21.8 0 2.4-.2 4.7-.4 7.1-3.4 35.7-28.6 68.9-71.1 93.6-91.8 53.4-241.6 53.4-334 0-37.8-21.9-62.5-50.8-69.9-82.1 0 2.5.1 4.9.4 7.2z"/><path fill="#3dc97f" d="M2416.4 2057.1c-3.4 4-7.1 8.1-11.2 12l-2.5 2.5c-.2.2-1.7 1.7-2 1.9-1.8 1.5-3.6 3.1-5.5 4.6v72.1c2.1-2.2 4.2-4.4 6-6.7.3-.4 1.2-1.3 1.5-1.6.1-.1 2.2-3 2.3-3.2 1.9-2.6 3.7-5.3 5.3-7.9.1-.2 1.2-1.7 1.4-2 .1-.2 1.2-1.9 1.4-2 1.2-2.7 2.1-4.5 2.9-6.3l.9-1.9c.7-1.5 1.4-2.7 1.8-4 .1-.2.4-1.7.5-1.9.8-1.8 1.2-3.8 1.6-5.8.1-.3.5-1.6.6-1.9l.9-2.7c0-.3.1-.7.2-1 .3-2 .5-4.2.6-6.3l.4-3.2c.1-.7.2-1.4.2-2l.2-42.5c-1 1.5-2.1 3-3.2 4.3-1 1.5-2.6 3.6-4.3 5.5z"/><path fill="#10562e" d="M2258.2 2214.9c1.3-.2 2.6-.5 4.2-.9 1-.3 2.1-.5 3.1-.7.1 0 .3-.1.4-.1 4.5-.8 8.8-1.7 12.9-2.7.1 0 .1 0 .2-.1 1.5-.4 3-.8 4.7-1.2 1.6-.4 3.3-.9 5-1.3 4-1.1 7.9-2.1 11.7-3.4 1.3-.5 2.4-.8 3.4-1 .5-.2.9-.4 1.3-.5l2.4-.9c.1 0 .1 0 .2-.1 6.3-2.2 12.8-4.5 19-7.1 2.4-1 4.5-1.9 6.9-3 2.8-1.3 5.5-2.6 7.9-3.7h-.1c-.7.3-1.3.5-2 .8l-2.4.9c-.5.2-1 .3-1.5.4-.2 0-.5.1-.7.1-.3.1-.6.3-1 .4-4.4 1.4-8.9 2.6-13.2 3.8-.1 0-.2.1-.3.1-1.5.4-3 .8-4.7 1.2-1.6.4-3.4.9-5.1 1.3-4.5 1.2-9.3 2.2-14.2 3-.8.2-1.6.4-2.3.6-1.6.4-3.4.8-5.4 1.2-.9.2-1.7.3-2.4.4-9.7 1.8-19 3.1-28.3 4H2257c-.4.1-1 .1-1.7.2-2.2.2-4.4.4-6.4.6h-.2c-5.5.4-11.1.8-16.7 1-.8.1-1.5.1-2.1.2-.5 0-1 .1-1.4.1-.5.1-.9.1-1.4.1H2202c-1.3 0-2.5-.1-3.6-.1-1.2-.1-2.2-.1-3.2-.1-4.6-.2-8.7-.4-13-.8-.9-.1-1.7-.1-2.4-.2-.8 0-1.8-.1-2.8-.2-1.6 0-3.1-.2-4.5-.4-.6-.1-1.2-.2-1.9-.2h-.2c-4-.4-8.1-.8-12.5-1.4l-5.6-.6c-.4 0-.8-.1-1.1-.2-1.5-.3-3-.7-4.2-.8-.2 0-.4 0-.6-.1-4.5-.8-9-1.6-13.2-2.3-.6-.1-1.2-.2-1.7-.3-1.5-.2-3.1-.5-4.8-.9-1.3-.2-2.5-.5-3.6-.8l-.8-.2-2.3-.5c-4.3-1-8.8-2-13.3-3.2-.8-.2-1.7-.4-2.6-.6-1.3-.3-2.7-.6-4.1-1-.5-.1-1-.3-1.4-.5-.1 0-.2-.1-.4-.1s-.3-.1-.4-.1c-10.6-3.1-19.2-6-26.9-9.1-.5-.1-1.3-.3-2.1-.7-3.1-1.2-6-2.6-8.9-3.9-.8-.4-1.6-.7-2.4-1.1-2.3-.9-4.5-1.9-6.7-2.8 0 0-.1-.1-.2-.1-5.8-2.7-12.1-6-18.9-9.8-49.8-28.7-77.4-67.2-78.2-108.7-2.8-3.4-5.4-6.8-7.7-10.2l-.1 40c-.2 35.1 24.1 68.6 68.5 94.2 6.2 3.5 12.1 6.6 17.4 9.1 2 .9 3.9 1.8 5.6 2.4.2.1.4.2.7.3.9.4 1.9.8 2.8 1.3 2.7 1.2 5.3 2.4 7.9 3.5.3.1.7.2 1.2.3.2.1.4.1.6.2 7.3 3 15.4 5.8 25.7 8.8.1 0 .2.1.4.1l.2.1c.5.2 1.3.4 2.1.8.6.2 1.4.3 2.2.5 1.1.2 2.2.5 3.4.8 4.1 1.1 8.4 2.1 12.6 3l2.3.5h.2l1 .2c.9.2 1.8.5 2.3.5.5.1.9.2 1.4.3.7.2 1.7.4 2.9.5.8.1 1.5.2 2.3.4 4.1.8 8.5 1.5 12.8 2.3 1.9.2 3.7.6 5.4 1l5.2.5h.3c4 .5 7.8.9 11.9 1.3h.1c.8.1 1.7.2 2.5.3 1 .1 1.9.2 2.5.2h1c.7.1 1.5.1 2.4.2 1 .1 2.1.1 3.3.2 3.8.3 7.5.5 11.8.7 1.2 0 2.3.1 3.4.1 1 0 1.9.1 2.8.1h24.7c.7-.1 1.4-.1 2-.2.5 0 1-.1 1.3-.1.3 0 .7-.1 1-.1 5.4-.2 11-.6 16.4-.9 2.1-.2 4.4-.4 6.7-.6h.5c.4-.1 1.1-.1 1.9-.2 8.9-.9 17.8-2.2 27.1-3.9.4-.1.7-.1 1.1-.1.3-.3.5-.3.7-.3z"/><path fill="#00edff" d="m2026.8 863.3-162.5 93.4-345.8 198.7-12.5 7.2c-2.2 1.3-4.2 1.8-6.8 1.8h-1.2c-1.3-.1-3.5-.7-5.9-2.1l-408.6-233.6-117.4-67.1 117.4-67.5 380.6-218.9c9.3-5.1 19.4-7.8 29.3-7.8 10 0 19.9 2.7 28.7 7.8l83.3 47.6 258.8 147.9 162.6 92.6z" opacity=".4"/><path fill="none" stroke="#332456" stroke-linecap="round" stroke-linejoin="round" stroke-miterlimit="10" stroke-width="19.349" d="m2026.8 863.3-504.5-288.2c-8.8-5.1-18.7-7.8-28.7-7.8-9.9 0-20 2.7-29.3 7.8l-498 286.5"/><path fill="#fff" d="m2026.8 863.3-508.3 292.1c-73-64.8-116.6-146.7-116.6-235.7 0-120.2 79.5-227.3 203.6-297.1l421.3 240.7z" opacity=".36"/><path fill="#29174c" d="m1420.7 963.1 46.6 54.4-30.2 19.4L1291 862.6l35.2-22.7 300 75.2-31.2 20.1-94.2-23.7-80.1 51.6zm51.6-60.3-86.3-21.7c-19.6-4.9-36.2-10.2-52.4-15.2l-.7.4c9.9 9.6 19.7 19.5 28.9 29.9l42.3 50.4 68.2-43.8zM1482.6 739.2l222.9 124.9-29.2 18.8L1453.4 758l29.2-18.8z" opacity=".64"/><path fill="#fff" d="M1495.5 558v605.8c-1-.3-2.1-.8-3.3-1.5l-408.6-233.6V558h411.9z" opacity=".3"/><path fill="#fff" d="M1864.3 558v398.6l-345.8 198.7-12.5 7.2c-2.2 1.3-4.2 1.8-6.8 1.8h-1.2c-.7-.1-1.6-.3-2.6-.6V558h368.9z" opacity=".6"/><path fill="#d6d4d4" stroke="#29174c" stroke-linecap="round" stroke-linejoin="round" stroke-miterlimit="10" stroke-width="14.456" d="M1712.3 291.3c-2.5-.5-5-1.1-7.5-1.4-57.7-11.8-125.8-8.2-196 15.2-166.9 55.2-278.7 222.1-283.7 364-1.8 50.4 14.5 88.1 39.5 114.9-20 1.4-36.8.5-50.9-1.8-73.6-12.9-76.8-68.4-76.8-68.4s-69.5-22-67.2-106.5c2.3-84.3 46.3-134.7 46.3-134.7s-1.1-11.6 19.8-66.1c20.9-54.3 72-48.8 72-48.8s17.3-72.9 89.3-104.7c66.5-29.5 115.4-4.3 122-.5.7.2.9.5.9.5s.2-.7.7-1.8l.2-.5c4.8-8.9 30.2-41.8 149.7-37.9 79.5 2.7 114.5 29.1 129.7 50.9h.2c4.3 6.1 7 11.8 8.8 16.6 1.8 4.8 2.7 8.7 3 11z"/><path fill="#d6d4d4" stroke="#29174c" stroke-linecap="round" stroke-linejoin="round" stroke-miterlimit="10" stroke-width="14.456" d="M1860.4 413.1c-16.2-60.7-72.4-104.8-148.2-121.9-59.1-13.3-130.2-10.4-203.3 13.9-167 55.3-278.8 222.3-283.8 364-1.8 50.5 14.5 88.3 39.4 115 44.9 48.2 117.5 60.5 161.5 47 69.8-21.5 77.6-59.1 77.6-59.1 34.9 12.2 83.8 17.6 152.1 6.4 207.2-33.9 233.6-257.4 204.7-365.3zM1440.7 731c12.5 14.5 32.2 30.2 62.1 40.8-5-1.4-37.3-11.2-62.1-40.8z"/><path fill="#fff" d="M1692.2 294.7c-17.1-2.7-34.9-4.1-53-4.1-41.7 0-85.5 7.2-128 21.3-168.6 55.8-274.2 225.6-278.8 357.4-1.6 44.5 11.1 81.4 37.5 109.8 7.3 7.8 15.6 14.8 24.8 21-24.5-30-36.6-68.8-35-113 4.7-134.9 107.5-310.7 288.7-370.6 47.7-15.8 97.2-23.2 143.8-21.8z"/><path fill="#9b9595" d="M1815.4 668.9c51.5-79.7 55.8-187.5 37.9-253.9-6.9-25.8-21.7-48.8-43-67.9 12.8 16.2 22 34.2 27.2 53.6 18.6 69.4 14.1 182.1-39.8 265.5-38.8 60-96.2 96.7-170.7 108.9h-.1c9-1 18.2-2.2 27.6-3.7 70.4-11.6 124.5-46.1 160.9-102.5zM1478.1 770.4c-6.1 13.1-24.9 40.1-79.8 57-1.7.5-3.4 1-5.2 1.4 11-.3 21.4-1.8 30.8-4.7 47.7-14.7 64.6-37 70.1-47.7-3.1-1.1-7.2-2.8-11.7-4.9-1.3-.2-2.7-.6-4.2-1.1zM1700.7 281.7l5.2-11c-1.6.1-3.3.2-5.1.3-17.5.7-40.9.2-54.2-6.4-13-6.7-41.6-20.8-59.2-29.5 2.2 6.7 4.9 14.2 7.7 19.7 1.5 2.8 1.5 6.1.1 8.9-3.8 7.5-15.9 9.8-45.3 14.7-27.2 4.5-64.4 10.7-83.1 23.7-5.8 4-11 7.8-15.7 11.1-21.1 15.1-29.9 21.3-37.7 16.6-6.9-4.2-5.6-14.1-4.9-18.9 1.6-12.9 7.9-34.1 13.5-51.2-14.5 14.9-32.2 35.8-37.6 54.2-12.8 42.3-28.2 84.4-61.9 94.4-10.1 3-21.8 4.6-34.3 6.2-26.7 3.6-57.1 7.7-75.1 27.2l-2.2 2.3c-26 27.9-28.7 30.8-36.6 46.6-3.1 6.2-4.5 12.2-5 17l63.5-36.9c2.1-1.2 4.6-1.3 6.8-.2 2.2 1 3.7 3.1 4 5.5.4 2.6 8.5 63.2-24.4 79.7-16 7.9-40.1 25.2-58 38.6 9.4-.3 19 1 25.9 6 4.5 3.2 9.8 9.4 9.9 20.6 0 5.3-.4 11.8-.8 19.3-2 32.4-5.2 86.2 22 135.4 9.7 1.4 20.2 2 31.3 1.8-22.6-29.5-33.2-66-31.7-108.6 4.7-135 107.5-310.8 288.6-370.6 66.5-22.1 133.5-27.8 194.3-16.5z"/><path fill="#fff" d="M1584.9 221c-4.8-.4-9.6-.6-14.6-.8-100.7-3.3-131.6 19.8-140.4 30.3 11.8 2.6 20.7 6.1 26.1 8.7 11-14.9 41.5-37.3 128.9-38.2zM1333.1 262.1c18-8 34.7-12.1 49.8-13.9-20.7-3.6-49.4-3.3-82.8 11.5-67.9 30-85 99.1-85.2 99.7-.8 3.5-4.2 5.9-7.8 5.5-.3 0-1.6-.1-3.5-.1-11.1 0-45.2 3.5-61 44.4-19.2 50.1-19.3 62.6-19.3 63.1 0 1.8-.6 3.8-1.8 5.1-.4.5-42.4 49.7-44.6 130.1-1.5 55.3 29.2 81.8 48.1 92.8-13.6-17.5-24.6-42.5-23.7-77.6 2.1-77.6 38.1-126.8 46.5-137.2.7-6.8 4.2-24.3 20.1-65.9 18.1-47.1 57.9-53.1 73.3-53.5 5.9-18.4 28.5-76 91.9-104zM1181.4 763.9c-8-11.9-11-23.1-12.1-29.3-5.1-2.2-14-6.6-23.8-14.1 2.7 10.5 11 30.1 35.9 43.4z"/><path fill="none" stroke="#29174c" stroke-linecap="round" stroke-linejoin="round" stroke-miterlimit="10" stroke-width="14.456" d="M1175.5 635.2s-44.1.1-38.5 78.8M1111.3 542.7s62.3 45.4 39.3 106.2M1837 645.3s-46.2-32.4-98.8 0-44.4 97.8-44.4 97.8M1608.6 677.7s46.5-71.3 121.1-26.5"/><path fill="none" stroke="#29174c" stroke-linecap="round" stroke-linejoin="round" stroke-miterlimit="10" stroke-width="14.456" d="M1712.5 537.6s-67.9 20.2-32.8 98.9M1760.4 549.3s49 57.3 103.9 10.6M1789.6 437.1s-99.7-37.4-119.9 77.1"/><path fill="none" stroke="#29174c" stroke-linecap="round" stroke-linejoin="round" stroke-miterlimit="10" stroke-width="14.456" d="M1575.9 454.7s57.5-76.8 125.7-5.1M1370.6 384.9s90.8-51.9 145.7 34M1462.6 615.8s4.7-72.4 67.7-78.2 78.2 49.4 78.2 49.4M1438.1 466.3s84.1-14 92.3 71.2M1242.3 576.5s48.6-70.3 118.7-16.7M1248.3 763c102.2 11.8 97.5-69 97.5-69M1530.3 663.7s-19.9 64.2 58.4 79.4M1608.6 283.4s75.9 11.2 75.9 86"/><path fill="none" stroke="#29174c" stroke-linecap="round" stroke-linejoin="round" stroke-miterlimit="10" stroke-width="14.456" d="M1321.1 748.8s86 14.5 66.2 87.5M1471 377.6s-6.7-61.5 79.6-84.1M1394.1 406.7s69.1 40.6 31.9 117.4M1831.1 357.7s-59.2 37.3-32.7 138.3M1386.6 607.2s92.1-9.7 129.7 56.5M1284.5 657.1s26.3 61.9 117.6 20.6M1638.7 382.5s38.2-39.9 104 11.6M1570.6 784.2s10.7-65.1 79.1-80.8M1156 601.3s36.8-38.2 81.8-9.9M1189.9 481.9s43.8-83.8 142.1-58.8M1207.8 357.7s28.6-7.5 57.4 19.9"/><path fill="none" stroke="#29174c" stroke-linecap="round" stroke-linejoin="round" stroke-miterlimit="10" stroke-width="14.456" d="M1116.2 472.8s56.5-61.8 111.6-32.3M1422.4 248.7s-44.3 49.9-15.4 95.1M1265.2 418.9s-14.8-64.9 55.4-107M1584 213.7s-67.1 8-67.7 62.5M1589.2 235s34.4 24.2 41.7 46"/></svg>